PathFileType	4	(X/Y/Z)	T1_P2_Vision_NoMovement_4_0-734.trc
DataRate	CameraRate	NumFrames	NumMarkers	Units	OrigDataRate	OrigDataStartFrame	OrigNumFrames
60	60	5	27	m	60	550	734
Frame#	Time	RHip			RKnee			RAnkle			RBigToe			RSmallToe			RHeel			LHip			LKnee			LAnkle			LBigToe			LSmallToe			LHeel			Neck			Head			Nose			RShoulder			RElbow			RWrist			RThumb			RIndex			RPinky			LShoulder			LElbow			LWrist			LThumb			LIndex			LPinky		
		X1	Y1	Z1	X2	Y2	Z2	X3	Y3	Z3	X4	Y4	Z4	X5	Y5	Z5	X6	Y6	Z6	X7	Y7	Z7	X8	Y8	Z8	X9	Y9	Z9	X10	Y10	Z10	X11	Y11	Z11	X12	Y12	Z12	X13	Y13	Z13	X14	Y14	Z14	X15	Y15	Z15	X16	Y16	Z16	X17	Y17	Z17	X18	Y18	Z18	X19	Y19	Z19	X20	Y20	Z20	X21	Y21	Z21	X22	Y22	Z22	X23	Y23	Z23	X24	Y24	Z24	X25	Y25	Z25	X26	Y26	Z26	X27	Y27	Z27
551	9.183333333333334	465.64267490866445	3763.460633237838	652.0495795166578	853.7066677695477	3794.7894455849982	658.7461296268234	1214.2285701369647	3749.768375550446	692.3443231941451	1290.3304122460488	3641.6734108175287	651.1388325237257	1289.31871131963	3686.2220757795985	604.4788879880957	1280.5203822103385	3801.221505794161	754.1061213602559	462.782508485774	3648.147096791665	853.2877546865963	848.5926060503136	3664.320253938957	855.8798717101369	1225.2323217963578	3694.9346986885607	859.0336522083699	1298.2715013850272	3548.073804691572	798.359773628928	1268.5205166018045	3530.4451027240334	833.9574888163104	1258.9871437988575	3725.673279822017	863.3775394614768	-127.61949165037014	3665.571289978817	739.6170895029495	-389.61605688855457	3589.2006090312375	672.8092134313125	-246.1996073379404	3525.5730111178827	652.1196820188399	-46.719862648130366	3777.1761385739087	600.624230676023	199.92284886878136	3800.750529208336	542.4102639506247	350.1943746985222	3565.3571684003205	618.4587643676105	406.82952983562836	3528.2379421712703	674.775424253867	430.366306122605	3544.6791068060256	708.6619888338319	448.4996484319895	3477.8387273768603	644.5778430934629	-44.706136813196494	3600.442523485997	883.4703365635619	209.8252665914454	3501.1724848463728	884.6122016755564	359.3350937174864	3489.861764617283	729.187122641082	409.2162913035286	3513.3597741388407	627.0368777402173	435.30956974652236	3530.3257059869416	628.3785493067315	452.9907968012029	3462.2880088023403	652.7177864641321
552	9.2	465.73793201283144	3763.580793913996	652.0640385115495	853.3212292423538	3795.9742367879835	658.3377249457931	1215.2200731384294	3749.409303670325	691.665988024446	1290.9659851956112	3643.7055865976904	651.1307428849157	1289.3327853578994	3686.1286759516915	604.3920366765267	1280.2436117922557	3800.8711423577383	753.9384814811938	462.47756279771755	3647.5851615058036	851.406728343858	848.2441338414106	3664.2735019964366	855.7762037484104	1224.9030890711608	3694.8193396284155	858.9125942528067	1298.6709924581953	3548.917580295932	799.0892637477832	1269.1816165838711	3530.752155924265	835.5837506446239	1258.194003631168	3725.249459701693	863.2170163401479	-127.70659804707682	3666.8862043807094	738.6911852862306	-389.5856912804319	3589.3269370187754	672.4025017451335	-245.14517388832778	3525.0308022998934	651.7701649391595	-46.706362083394126	3777.429474340349	600.89549844374	199.82642203946708	3800.3758152049927	542.3469566640081	350.177561643331	3565.3193222660348	618.3841963724664	408.07875154535617	3525.604893562477	670.7553666457383	430.22491503344713	3543.4188144375435	708.2932019747702	447.10990602226497	3476.7606021970582	644.1060446283975	-44.69132276972424	3601.0288201867716	882.8510319820581	209.10273707807596	3495.9554952473964	879.6091948160267	359.26540339942363	3487.3447056326454	726.8098567545795	409.44924078285686	3516.50407889311	628.0468125913418	436.2458330747524	3532.983118263178	629.0273516126256	452.34579103763656	3466.809601397103	653.147686656738
553	9.216666666666669	465.8750990120349	3763.555880207248	651.9958331801578	853.2073320932284	3794.846380230993	657.3289475944296	1217.8413175234277	3748.2120801041387	689.3567006811089	1289.9648923023437	3641.5836206601357	649.2551760567903	1289.314911230537	3685.8544790411097	604.1875447805776	1279.9088283332806	3797.4437546540566	750.4874316668731	462.35957585458056	3648.403848546053	850.0688828616867	848.820600963325	3664.5334020419014	855.9354424903902	1225.7386988302492	3695.121907108798	859.1677350360274	1299.1756222658328	3550.046836038019	800.1198273665846	1268.0534167593987	3528.0515606524223	834.0897882491436	1258.04428974962	3725.1873123939113	863.1873260350852	-128.06008969928723	3668.122089399818	738.7361958248724	-389.7346849146969	3589.2381711034495	672.8093677250585	-244.81951414921332	3524.710158440139	651.6049085637837	-46.70040035077597	3777.438441315563	601.0038888725169	199.74592199544514	3800.2610589213414	542.2922053253288	350.1946826560981	3565.293481714529	618.3096233736837	410.4967069556927	3528.2045876031684	667.7733882580409	431.16749850073	3545.3967451378785	708.7908708415209	446.50955646579854	3476.458104234696	643.9903034002771	-44.68320941103914	3601.7055743228448	882.6803746968089	208.5648634126448	3491.970753585569	875.7968782227947	358.91462088331434	3484.812242190259	724.4319067114918	410.4187531174785	3523.530450672803	630.0910328576385	438.29809100438086	3538.8518126974877	630.3246186832155	452.1383841386843	3471.047193268305	654.3292808637883
554	9.233333333333333	465.40815758606334	3763.4030845376824	651.8594202134942	853.1581660560537	3794.707884533315	657.01478610217	1218.8907462857167	3744.6418221226377	685.5039887169294	1288.0113359944332	3636.734631631546	646.985641894125	1289.1788147351542	3685.758610761661	604.108162627015	1279.548014260202	3793.850241599414	746.8310147366903	461.97312129726447	3647.375990157782	848.0590267571918	849.6124690506673	3664.804114310239	856.1406532308683	1227.059155002349	3695.6262419360646	859.6003538345035	1298.671211091847	3549.1796008366537	799.328080878465	1265.7272632655838	3523.651051122657	830.0796375803758	1258.2458094430988	3725.3806496822754	863.316100594848	-128.74989036510055	3668.8726863521324	739.0590751700562	-390.2763027402321	3589.2839109734596	673.71098839863	-245.28999468932773	3525.0078899753344	651.8067835120238	-46.69985009677576	3777.3510747282517	600.9569682092199	199.70964654134042	3800.2651537134516	542.2507459754182	350.2042211353697	3565.264757280019	618.2453384880384	412.7879750393369	3532.337371542457	666.5703942944853	432.8667160995774	3546.9491025812467	709.0184202720416	446.4058349170095	3475.9009583212396	643.694718151041	-44.64323004382581	3603.9862895448314	883.3663059027815	208.50124225653911	3490.2035687336925	874.1552709949782	358.78401408859213	3482.276293551049	722.052449496916	411.7187829988866	3529.648455272306	631.7858976700692	440.29022774106875	3543.363382811231	631.1315147073722	452.16886310872	3471.0470703975834	655.0221522763021
555	9.25	463.86150664699494	3762.885263938851	651.5477328454822	853.0261414450201	3798.9283631200183	658.1969387684186	1216.9458298912123	3739.958637019875	681.8003711771804	1286.1421462264532	3631.9474662858593	645.3493543693937	1288.8363915071309	3686.2607500530935	604.4016450572781	1278.8866149830978	3791.857234244557	745.0250135578887	461.15572351352085	3643.0082780501907	845.1704468044454	849.5007620352476	3664.6835718759057	856.0658568693574	1227.6691625755059	3695.9007102942724	859.8263914799882	1297.808302634685	3547.5781460362787	797.8418799430958	1263.5617813133804	3520.5924586189703	826.4900182948645	1258.4305482062123	3725.5620398432075	863.4626150666066	-129.20239007786407	3667.4971747081786	737.9111585412908	-391.0876122234438	3589.6469631708983	674.466048790147	-246.04761572943895	3525.605299460853	652.1650332885542	-46.7084434592146	3777.266072471053	600.8555212198581	199.71725614151225	3800.246643629067	542.2095900273771	350.2049866079243	3565.2121700546018	618.1823382417201	414.10946214768154	3535.145189487481	666.6710867849655	434.58157201754614	3548.280274340283	708.7933804853093	446.57089622821786	3475.0095077460323	642.8429801075602	-44.578487333240986	3607.043257316632	884.3983791154435	208.97344786526494	3489.655758743014	873.7908356108027	359.01877309700114	3480.178042514286	720.0919449164775	412.89478778444914	3532.4362039521206	632.4666852532256	441.03462631995416	3545.1002515054242	631.3505092478465	452.28677858436737	3467.9023798510525	655.3570259835839
